<svg id="visual" viewBox="0 0 960 540" width="960" height="540" xmlns="http://www.w3.org/2000/svg" xmlns:xlink="http://www.w3.org/1999/xlink" version="1.1"><rect x="0" y="0" width="960" height="540" fill="#1d0d22"></rect><defs><linearGradient id="grad1_0" x1="43.8%" y1="0%" x2="100%" y2="100%"><stop offset="14.444444444444446%" stop-color="#6600ff" stop-opacity="1"></stop><stop offset="85.55555555555554%" stop-color="#6600ff" stop-opacity="1"></stop></linearGradient></defs><defs><linearGradient id="grad1_1" x1="43.8%" y1="0%" x2="100%" y2="100%"><stop offset="14.444444444444446%" stop-color="#6600ff" stop-opacity="1"></stop><stop offset="85.55555555555554%" stop-color="#6400d9" stop-opacity="1"></stop></linearGradient></defs><defs><linearGradient id="grad1_2" x1="43.8%" y1="0%" x2="100%" y2="100%"><stop offset="14.444444444444446%" stop-color="#5e02b6" stop-opacity="1"></stop><stop offset="85.55555555555554%" stop-color="#6400d9" stop-opacity="1"></stop></linearGradient></defs><defs><linearGradient id="grad1_3" x1="43.8%" y1="0%" x2="100%" y2="100%"><stop offset="14.444444444444446%" stop-color="#5e02b6" stop-opacity="1"></stop><stop offset="85.55555555555554%" stop-color="#540794" stop-opacity="1"></stop></linearGradient></defs><defs><linearGradient id="grad1_4" x1="43.8%" y1="0%" x2="100%" y2="100%"><stop offset="14.444444444444446%" stop-color="#490b74" stop-opacity="1"></stop><stop offset="85.55555555555554%" stop-color="#540794" stop-opacity="1"></stop></linearGradient></defs><defs><linearGradient id="grad1_5" x1="43.8%" y1="0%" x2="100%" y2="100%"><stop offset="14.444444444444446%" stop-color="#490b74" stop-opacity="1"></stop><stop offset="85.55555555555554%" stop-color="#3b0e56" stop-opacity="1"></stop></linearGradient></defs><defs><linearGradient id="grad1_6" x1="43.8%" y1="0%" x2="100%" y2="100%"><stop offset="14.444444444444446%" stop-color="#2c0f3b" stop-opacity="1"></stop><stop offset="85.55555555555554%" stop-color="#3b0e56" stop-opacity="1"></stop></linearGradient></defs><defs><linearGradient id="grad1_7" x1="43.8%" y1="0%" x2="100%" y2="100%"><stop offset="14.444444444444446%" stop-color="#2c0f3b" stop-opacity="1"></stop><stop offset="85.55555555555554%" stop-color="#1d0d22" stop-opacity="1"></stop></linearGradient></defs><defs><linearGradient id="grad2_0" x1="0%" y1="0%" x2="56.3%" y2="100%"><stop offset="14.444444444444446%" stop-color="#6600ff" stop-opacity="1"></stop><stop offset="85.55555555555554%" stop-color="#6600ff" stop-opacity="1"></stop></linearGradient></defs><defs><linearGradient id="grad2_1" x1="0%" y1="0%" x2="56.3%" y2="100%"><stop offset="14.444444444444446%" stop-color="#6400d9" stop-opacity="1"></stop><stop offset="85.55555555555554%" stop-color="#6600ff" stop-opacity="1"></stop></linearGradient></defs><defs><linearGradient id="grad2_2" x1="0%" y1="0%" x2="56.3%" y2="100%"><stop offset="14.444444444444446%" stop-color="#6400d9" stop-opacity="1"></stop><stop offset="85.55555555555554%" stop-color="#5e02b6" stop-opacity="1"></stop></linearGradient></defs><defs><linearGradient id="grad2_3" x1="0%" y1="0%" x2="56.3%" y2="100%"><stop offset="14.444444444444446%" stop-color="#540794" stop-opacity="1"></stop><stop offset="85.55555555555554%" stop-color="#5e02b6" stop-opacity="1"></stop></linearGradient></defs><defs><linearGradient id="grad2_4" x1="0%" y1="0%" x2="56.3%" y2="100%"><stop offset="14.444444444444446%" stop-color="#540794" stop-opacity="1"></stop><stop offset="85.55555555555554%" stop-color="#490b74" stop-opacity="1"></stop></linearGradient></defs><defs><linearGradient id="grad2_5" x1="0%" y1="0%" x2="56.3%" y2="100%"><stop offset="14.444444444444446%" stop-color="#3b0e56" stop-opacity="1"></stop><stop offset="85.55555555555554%" stop-color="#490b74" stop-opacity="1"></stop></linearGradient></defs><defs><linearGradient id="grad2_6" x1="0%" y1="0%" x2="56.3%" y2="100%"><stop offset="14.444444444444446%" stop-color="#3b0e56" stop-opacity="1"></stop><stop offset="85.55555555555554%" stop-color="#2c0f3b" stop-opacity="1"></stop></linearGradient></defs><defs><linearGradient id="grad2_7" x1="0%" y1="0%" x2="56.3%" y2="100%"><stop offset="14.444444444444446%" stop-color="#1d0d22" stop-opacity="1"></stop><stop offset="85.55555555555554%" stop-color="#2c0f3b" stop-opacity="1"></stop></linearGradient></defs><g transform="translate(960, 0)"><path d="M0 162C-13.1 157.3 -26.3 152.6 -40.1 149.7C-53.9 146.9 -68.4 145.9 -81 140.3C-93.6 134.7 -104.2 124.4 -113.1 113.1C-122 101.9 -129.2 89.7 -133.4 77C-137.5 64.3 -138.7 51.2 -143 38.3C-147.2 25.4 -154.6 12.7 -162 0L0 0Z" fill="#250f2e"></path><path d="M0 141.8C-11.5 137.6 -23 133.5 -35.1 131C-47.2 128.5 -59.9 127.7 -70.9 122.8C-81.9 117.8 -91.2 108.8 -99 99C-106.8 89.1 -113.1 78.5 -116.7 67.4C-120.3 56.3 -121.3 44.8 -125.1 33.5C-128.8 22.2 -135.3 11.1 -141.7 0L0 0Z" fill="#340f48"></path><path d="M0 121.5C-9.9 118 -19.7 114.4 -30.1 112.3C-40.5 110.2 -51.3 109.4 -60.7 105.2C-70.2 101 -78.2 93.3 -84.9 84.9C-91.5 76.4 -96.9 67.3 -100 57.8C-103.1 48.2 -104 38.4 -107.2 28.7C-110.4 19 -116 9.5 -121.5 0L0 0Z" fill="#420d65"></path><path d="M0 101.3C-8.2 98.3 -16.4 95.3 -25.1 93.6C-33.7 91.8 -42.8 91.2 -50.6 87.7C-58.5 84.2 -65.1 77.7 -70.7 70.7C-76.3 63.7 -80.8 56 -83.4 48.1C-86 40.2 -86.7 32 -89.3 23.9C-92 15.9 -96.6 7.9 -101.2 0L0 0Z" fill="#4f0983"></path><path d="M0 81C-6.6 78.6 -13.1 76.3 -20.1 74.9C-27 73.4 -34.2 73 -40.5 70.1C-46.8 67.3 -52.1 62.2 -56.6 56.6C-61 50.9 -64.6 44.8 -66.7 38.5C-68.8 32.2 -69.3 25.6 -71.5 19.2C-73.6 12.7 -77.3 6.3 -81 0L0 0Z" fill="#5904a4"></path><path d="M0 60.8C-4.9 59 -9.9 57.2 -15 56.1C-20.2 55.1 -25.7 54.7 -30.4 52.6C-35.1 50.5 -39.1 46.6 -42.4 42.4C-45.8 38.2 -48.5 33.6 -50 28.9C-51.6 24.1 -52 19.2 -53.6 14.4C-55.2 9.5 -58 4.8 -60.7 0L0 0Z" fill="#6100c7"></path><path d="M0 40.5C-3.3 39.3 -6.6 38.1 -10 37.4C-13.5 36.7 -17.1 36.5 -20.2 35.1C-23.4 33.7 -26.1 31.1 -28.3 28.3C-30.5 25.5 -32.3 22.4 -33.3 19.3C-34.4 16.1 -34.7 12.8 -35.7 9.6C-36.8 6.3 -38.7 3.2 -40.5 0L0 0Z" fill="#6600ec"></path><path d="M0 20.3C-1.6 19.7 -3.3 19.1 -5 18.7C-6.7 18.4 -8.6 18.2 -10.1 17.5C-11.7 16.8 -13 15.5 -14.1 14.1C-15.3 12.7 -16.2 11.2 -16.7 9.6C-17.2 8 -17.3 6.4 -17.9 4.8C-18.4 3.2 -19.3 1.6 -20.2 0L0 0Z" fill="#6600ff"></path></g><g transform="translate(0, 540)"><path d="M0 -162C14.1 -160 28.3 -158 41.2 -153.6C54 -149.2 65.6 -142.4 78.5 -136C91.4 -129.6 105.5 -123.6 112.4 -112.4C119.3 -101.3 119 -85 126.4 -73C133.9 -61 149.2 -53.4 156.5 -41.9C163.7 -30.5 162.9 -15.2 162 0L0 0Z" fill="#250f2e"></path><path d="M0 -141.7C12.4 -140 24.7 -138.2 36 -134.4C47.3 -130.5 57.4 -124.6 68.7 -119C80 -113.4 92.3 -108.1 98.4 -98.4C104.4 -88.6 104.1 -74.4 110.6 -63.9C117.2 -53.4 130.6 -46.7 136.9 -36.7C143.3 -26.7 142.5 -13.3 141.8 0L0 0Z" fill="#340f48"></path><path d="M0 -121.5C10.6 -120 21.2 -118.5 30.9 -115.2C40.5 -111.9 49.2 -106.8 58.9 -102C68.5 -97.2 79.2 -92.7 84.3 -84.3C89.5 -76 89.2 -63.7 94.8 -54.8C100.4 -45.8 111.9 -40 117.4 -31.4C122.8 -22.9 122.1 -11.4 121.5 0L0 0Z" fill="#420d65"></path><path d="M0 -101.2C8.8 -100 17.7 -98.7 25.7 -96C33.8 -93.2 41 -89 49.1 -85C57.1 -81 66 -77.2 70.3 -70.3C74.6 -63.3 74.3 -53.1 79 -45.6C83.7 -38.1 93.3 -33.4 97.8 -26.2C102.3 -19.1 101.8 -9.5 101.3 0L0 0Z" fill="#4f0983"></path><path d="M0 -81C7.1 -80 14.1 -79 20.6 -76.8C27 -74.6 32.8 -71.2 39.2 -68C45.7 -64.8 52.8 -61.8 56.2 -56.2C59.7 -50.6 59.5 -42.5 63.2 -36.5C67 -30.5 74.6 -26.7 78.2 -21C81.9 -15.2 81.4 -7.6 81 0L0 0Z" fill="#5904a4"></path><path d="M0 -60.7C5.3 -60 10.6 -59.2 15.4 -57.6C20.3 -55.9 24.6 -53.4 29.4 -51C34.3 -48.6 39.6 -46.3 42.2 -42.2C44.7 -38 44.6 -31.9 47.4 -27.4C50.2 -22.9 56 -20 58.7 -15.7C61.4 -11.4 61.1 -5.7 60.8 0L0 0Z" fill="#6100c7"></path><path d="M0 -40.5C3.5 -40 7.1 -39.5 10.3 -38.4C13.5 -37.3 16.4 -35.6 19.6 -34C22.8 -32.4 26.4 -30.9 28.1 -28.1C29.8 -25.3 29.7 -21.2 31.6 -18.3C33.5 -15.3 37.3 -13.3 39.1 -10.5C40.9 -7.6 40.7 -3.8 40.5 0L0 0Z" fill="#6600ec"></path><path d="M0 -20.2C1.8 -20 3.5 -19.7 5.1 -19.2C6.8 -18.6 8.2 -17.8 9.8 -17C11.4 -16.2 13.2 -15.4 14.1 -14.1C14.9 -12.7 14.9 -10.6 15.8 -9.1C16.7 -7.6 18.7 -6.7 19.6 -5.2C20.5 -3.8 20.4 -1.9 20.3 0L0 0Z" fill="#6600ff"></path></g></svg>