<svg id="visual" viewBox="0 0 960 540" width="960" height="540" xmlns="http://www.w3.org/2000/svg" xmlns:xlink="http://www.w3.org/1999/xlink" version="1.1"><rect width="960" height="540" fill="#000000"></rect><g><g transform="translate(574 451)"><path d="M43.6 -49.8C57.7 -40.2 70.9 -27.5 73.3 -13C75.7 1.4 67.3 17.7 57.7 32.3C48.1 46.8 37.2 59.7 22.6 67.1C8 74.6 -10.4 76.8 -27.5 72.1C-44.6 67.3 -60.5 55.7 -70.4 40C-80.3 24.2 -84.2 4.3 -81.1 -14.5C-78 -33.3 -67.8 -51 -53.1 -60.4C-38.5 -69.8 -19.2 -70.9 -2.2 -68.3C14.8 -65.7 29.6 -59.3 43.6 -49.8Z" stroke="#0066FF" fill="none" stroke-width="20"></path></g><g transform="translate(515 198)"><path d="M12.1 -14.4C15.3 -11.7 17.3 -7.6 17.8 -3.4C18.3 0.9 17.3 5.1 15.3 9.2C13.4 13.2 10.5 17 6.5 19C2.5 20.9 -2.5 20.8 -6.6 19C-10.6 17.1 -13.6 13.4 -15.5 9.3C-17.3 5.3 -18 1 -17.5 -3.3C-17 -7.6 -15.3 -11.9 -12.1 -14.6C-9 -17.3 -4.5 -18.4 0 -18.4C4.4 -18.3 8.9 -17.1 12.1 -14.4Z" stroke="#0066FF" fill="none" stroke-width="20"></path></g><g transform="translate(957 112)"><path d="M9.9 -11.8C12.2 -9.9 13.1 -6.2 13.2 -2.7C13.3 0.7 12.7 3.8 11.3 7C10 10.2 8.1 13.4 5.2 14.6C2.3 15.8 -1.4 15 -4.7 13.5C-7.9 12 -10.7 9.9 -12.8 7C-14.8 4.2 -16.1 0.6 -15.6 -2.8C-15.1 -6.2 -12.7 -9.3 -9.8 -11.2C-6.9 -13 -3.5 -13.7 0.2 -13.9C3.8 -14.1 7.6 -13.8 9.9 -11.8Z" stroke="#0066FF" fill="none" stroke-width="20"></path></g><g transform="translate(822 459)"><path d="M22.2 -26.8C28.3 -21.4 32.3 -13.9 33.4 -6.2C34.4 1.6 32.4 9.6 28.6 17C24.9 24.4 19.3 31.2 12 34.5C4.6 37.9 -4.5 37.8 -12.5 34.7C-20.4 31.6 -27.2 25.6 -30.9 18.2C-34.7 10.9 -35.6 2.2 -33.8 -5.6C-32 -13.5 -27.6 -20.6 -21.6 -26C-15.5 -31.5 -7.8 -35.2 0.2 -35.4C8.1 -35.6 16.2 -32.2 22.2 -26.8Z" stroke="#0066FF" fill="none" stroke-width="20"></path></g><g transform="translate(150 46)"><path d="M30.4 -37.1C38.6 -29.4 43.8 -19 46 -7.9C48.2 3.2 47.3 15 42.4 25.5C37.5 36 28.7 45.2 18.4 47.8C8.1 50.3 -3.6 46.2 -14.7 41.6C-25.7 37 -36.1 31.9 -42.2 23.4C-48.3 14.8 -50.1 2.8 -47.7 -8C-45.3 -18.8 -38.7 -28.5 -30 -36.1C-21.3 -43.6 -10.7 -49.2 0.2 -49.4C11.1 -49.7 22.3 -44.7 30.4 -37.1Z" stroke="#0066FF" fill="none" stroke-width="20"></path></g><g transform="translate(168 238)"><path d="M28 -32.8C35.5 -27.1 40.2 -17.5 41 -8C41.7 1.5 38.4 10.9 33.7 19.8C29 28.8 22.8 37.3 14.2 41.4C5.7 45.5 -5.3 45.1 -14 40.9C-22.8 36.7 -29.3 28.7 -34.8 19.8C-40.4 10.8 -45 1 -43.7 -7.9C-42.4 -16.9 -35.1 -25.1 -26.8 -30.6C-18.6 -36.2 -9.3 -39.1 0.5 -39.7C10.3 -40.3 20.5 -38.5 28 -32.8Z" stroke="#0066FF" fill="none" stroke-width="20"></path></g><g transform="translate(365 349)"><path d="M32.8 -39.5C41.2 -32.1 45.9 -20.5 48 -8.4C50.2 3.6 50 16.2 44.8 26.7C39.7 37.2 29.8 45.8 18.4 49.4C7.1 53 -5.6 51.6 -17.4 47.5C-29.3 43.4 -40.3 36.5 -45.8 26.6C-51.3 16.7 -51.3 3.8 -49.5 -9.2C-47.8 -22.2 -44.2 -35.3 -35.6 -42.6C-27 -50 -13.5 -51.6 -0.7 -50.8C12.2 -50.1 24.4 -46.9 32.8 -39.5Z" stroke="#0066FF" fill="none" stroke-width="20"></path></g><g transform="translate(729 265)"><path d="M15 -17.7C18.5 -14.9 19.9 -9.3 20.3 -4C20.7 1.3 20.1 6.3 17.7 10.1C15.4 13.9 11.2 16.6 6.4 19C1.6 21.3 -3.8 23.3 -8.8 22.2C-13.7 21.2 -18.3 17.2 -21 12.2C-23.8 7.3 -24.7 1.4 -23.3 -3.6C-21.8 -8.7 -18.1 -12.8 -13.8 -15.6C-9.5 -18.3 -4.8 -19.7 0.5 -20.3C5.7 -20.8 11.4 -20.6 15 -17.7Z" stroke="#0066FF" fill="none" stroke-width="20"></path></g><g transform="translate(486 12)"><path d="M8.8 -10.5C10.8 -8.8 11.3 -5.4 11.9 -2.1C12.5 1.2 13.1 4.6 12 7.4C10.9 10.2 8.2 12.6 5 13.6C1.9 14.7 -1.6 14.4 -4.7 13.2C-7.7 11.9 -10.2 9.6 -11.3 6.9C-12.5 4.2 -12.2 1 -11.4 -1.8C-10.7 -4.6 -9.3 -7.1 -7.4 -8.8C-5.4 -10.5 -2.7 -11.4 0.4 -11.8C3.4 -12.2 6.8 -12.2 8.8 -10.5Z" stroke="#0066FF" fill="none" stroke-width="20"></path></g><g transform="translate(65 537)"><path d="M45.4 -53.7C58.1 -43.5 67.1 -28.4 68.8 -13C70.5 2.5 64.9 18.3 56.3 31.9C47.8 45.5 36.3 56.8 22.7 61.4C9 66 -6.7 63.9 -20.6 58.2C-34.5 52.5 -46.6 43.2 -54.1 30.9C-61.6 18.6 -64.6 3.3 -61.4 -10.1C-58.2 -23.6 -48.8 -35.3 -37.5 -45.7C-26.2 -56.2 -13.1 -65.4 1.6 -67.3C16.4 -69.2 32.7 -63.9 45.4 -53.7Z" stroke="#0066FF" fill="none" stroke-width="20"></path></g><g transform="translate(328 535)"><path d="M17 -20.2C21.5 -16.5 24.2 -10.6 25.2 -4.5C26.3 1.7 25.7 8.1 22.7 13.1C19.8 18.1 14.5 21.7 8.8 23.5C3.1 25.3 -3 25.2 -8.4 23.1C-13.7 21.1 -18.4 17.2 -21.2 12.3C-24 7.3 -25 1.4 -24.1 -4.4C-23.2 -10.1 -20.4 -15.5 -16.1 -19.3C-11.8 -23 -5.9 -25 0.2 -25.2C6.2 -25.5 12.5 -23.9 17 -20.2Z" stroke="#0066FF" fill="none" stroke-width="20"></path></g><g transform="translate(730 85)"><path d="M13.5 -16.5C17.2 -13 19.5 -8.5 20.9 -3.3C22.3 1.9 22.8 7.6 20.6 12.4C18.5 17.2 13.8 21 8.6 22.3C3.4 23.6 -2.2 22.5 -7.4 20.5C-12.7 18.5 -17.6 15.8 -20.1 11.6C-22.6 7.3 -22.7 1.7 -21.3 -3.4C-20 -8.4 -17.3 -12.9 -13.5 -16.3C-9.7 -19.7 -4.8 -22.1 0 -22.1C4.9 -22.2 9.9 -19.9 13.5 -16.5Z" stroke="#0066FF" fill="none" stroke-width="20"></path></g><g transform="translate(919 305)"><path d="M9.4 -10.6C12.4 -8.6 15.2 -5.9 16.1 -2.5C17.1 0.8 16.2 4.8 14.1 8.1C12.1 11.3 9 13.8 5.6 14.8C2.2 15.8 -1.6 15.2 -4.8 13.8C-8.1 12.4 -10.9 10.1 -12.9 7.2C-14.9 4.2 -16.2 0.6 -15.5 -2.7C-14.9 -5.9 -12.3 -8.7 -9.4 -10.7C-6.5 -12.6 -3.2 -13.7 0 -13.7C3.2 -13.6 6.4 -12.5 9.4 -10.6Z" stroke="#0066FF" fill="none" stroke-width="20"></path></g><g transform="translate(334 157)"><path d="M42.6 -51.4C54.5 -40.8 62.9 -26.7 66.2 -11.2C69.5 4.2 67.6 21.1 59.8 34.5C52 48 38.4 58.1 23.9 61.5C9.5 65 -5.9 61.7 -20.3 56.3C-34.7 50.8 -48.1 43.1 -55.9 31.4C-63.7 19.6 -66 3.8 -62 -9.5C-58 -22.8 -47.6 -33.6 -36.2 -44.3C-24.8 -55.1 -12.4 -65.8 1.5 -67.5C15.4 -69.3 30.7 -62.1 42.6 -51.4Z" stroke="#0066FF" fill="none" stroke-width="20"></path></g><g transform="translate(5 350)"><path d="M6.5 -8C8 -6.4 8.5 -4 8.6 -1.8C8.6 0.4 8.2 2.5 7.4 4.5C6.5 6.5 5.2 8.5 3.3 9.4C1.4 10.3 -1.1 10 -3.5 9.3C-5.8 8.5 -8.1 7.2 -9 5.3C-9.8 3.5 -9.4 0.9 -8.6 -1.2C-7.9 -3.4 -6.9 -5.3 -5.5 -6.8C-4 -8.3 -2 -9.5 0.2 -9.8C2.5 -10.1 5 -9.5 6.5 -8Z" stroke="#0066FF" fill="none" stroke-width="20"></path></g></g></svg>