<svg id="visual" viewBox="0 0 960 540" width="960" height="540" xmlns="http://www.w3.org/2000/svg" xmlns:xlink="http://www.w3.org/1999/xlink" version="1.1"><rect width="960" height="540" fill="#000000"></rect><g><g transform="translate(275 432)"><path d="M66.4 -81C83.2 -65 92 -41.4 96.3 -17C100.7 7.5 100.5 32.7 89.6 51.8C78.6 70.9 56.9 83.8 34.9 88.7C12.9 93.6 -9.5 90.5 -28.4 81.9C-47.3 73.3 -62.7 59.2 -73.6 41.8C-84.5 24.4 -90.8 3.6 -87.7 -15.7C-84.6 -35.1 -72.1 -53 -55.9 -69.1C-39.7 -85.3 -19.8 -99.6 2.5 -102.5C24.8 -105.5 49.6 -97 66.4 -81Z" stroke="#0066FF" fill="none" stroke-width="20"></path></g><g transform="translate(949 372)"><path d="M49.7 -58.1C64.3 -47 75.9 -31.2 80.1 -13.3C84.2 4.6 80.9 24.7 71.1 40.6C61.4 56.5 45.2 68.2 27.5 74.1C9.7 80 -9.7 80 -27 73.9C-44.3 67.7 -59.5 55.4 -67.9 39.8C-76.3 24.1 -77.9 5 -73.5 -11.7C-69.1 -28.5 -58.6 -43 -45.4 -54.3C-32.1 -65.7 -16.1 -73.9 0.7 -74.8C17.6 -75.7 35.1 -69.2 49.7 -58.1Z" stroke="#0066FF" fill="none" stroke-width="20"></path></g><g transform="translate(23 398)"><path d="M61.9 -73.6C78.5 -59.9 89 -38.7 89.6 -18.3C90.3 2.2 81.2 21.9 69.6 38.5C58 55 43.9 68.4 26.8 75.4C9.7 82.4 -10.4 83 -29.9 77.8C-49.5 72.6 -68.5 61.6 -78.4 45C-88.2 28.4 -88.9 6.3 -84.9 -14.7C-80.9 -35.8 -72.2 -55.7 -57.3 -69.7C-42.4 -83.7 -21.2 -91.7 0.8 -92.6C22.7 -93.5 45.4 -87.3 61.9 -73.6Z" stroke="#0066FF" fill="none" stroke-width="20"></path></g><g transform="translate(78 147)"><path d="M18 -22C22.1 -18 23.2 -11.2 23.7 -4.8C24.1 1.6 23.8 7.6 21.4 13C19 18.3 14.6 23.1 9 25.6C3.4 28 -3.4 28 -9.8 26.1C-16.3 24.2 -22.3 20.3 -25.1 14.8C-27.8 9.4 -27.2 2.3 -25.2 -3.7C-23.2 -9.7 -19.8 -14.7 -15.4 -18.5C-11 -22.4 -5.5 -25.1 0.7 -26C7 -26.9 13.9 -25.9 18 -22Z" stroke="#0066FF" fill="none" stroke-width="20"></path></g><g transform="translate(509 259)"><path d="M37.6 -43.2C48.1 -36 55.5 -23.6 58.4 -9.9C61.3 3.7 59.6 18.6 52.2 28.9C44.7 39.2 31.6 44.9 18.9 47.6C6.3 50.3 -5.9 49.9 -17 46.1C-28.1 42.3 -38.2 35.1 -45.4 25C-52.7 15 -57.1 2.1 -56.4 -11.4C-55.8 -24.8 -50 -38.8 -39.8 -46C-29.5 -53.3 -14.8 -53.8 -0.6 -53C13.6 -52.3 27.1 -50.4 37.6 -43.2Z" stroke="#0066FF" fill="none" stroke-width="20"></path></g><g transform="translate(917 111)"><path d="M45.9 -57.7C57.4 -44.9 63.5 -28.6 65.4 -12.3C67.3 3.9 65.1 20.1 57.4 32.9C49.7 45.6 36.6 55 21.4 61.8C6.3 68.5 -10.9 72.7 -25.5 68.2C-40.1 63.7 -52.3 50.4 -62.5 35C-72.7 19.6 -80.9 1.9 -79.3 -15.2C-77.7 -32.3 -66.4 -49 -51.6 -61.2C-36.7 -73.5 -18.4 -81.3 -0.6 -80.6C17.1 -79.8 34.3 -70.6 45.9 -57.7Z" stroke="#0066FF" fill="none" stroke-width="20"></path></g><g transform="translate(356 8)"><path d="M9.4 -11.2C12 -9 13.8 -5.9 14.2 -2.7C14.6 0.6 13.6 3.9 11.7 6.3C9.8 8.7 7 10.1 4.1 10.9C1.3 11.8 -1.6 12.1 -4.5 11.5C-7.4 10.8 -10.2 9.2 -12.1 6.6C-13.9 4.1 -14.8 0.7 -14 -2.2C-13.2 -5.1 -10.7 -7.4 -8.1 -9.5C-5.4 -11.7 -2.7 -13.6 0.3 -14C3.4 -14.4 6.8 -13.3 9.4 -11.2Z" stroke="#0066FF" fill="none" stroke-width="20"></path></g><g transform="translate(714 486)"><path d="M25.8 -31.5C32 -25.5 34.8 -16.1 36.4 -6.5C38 3.1 38.5 12.8 34.6 20.4C30.7 27.9 22.4 33.4 13.5 36.2C4.6 39.1 -4.9 39.4 -12.4 35.9C-19.9 32.4 -25.3 25 -29.1 17.3C-33 9.6 -35.3 1.5 -34.2 -6.2C-33.1 -13.9 -28.5 -21.2 -22.2 -27.2C-16 -33.2 -8 -37.9 0.9 -39C9.8 -40.1 19.5 -37.5 25.8 -31.5Z" stroke="#0066FF" fill="none" stroke-width="20"></path></g><g transform="translate(658 67)"><path d="M51.4 -60.2C64.2 -50.6 70.5 -32.1 71.5 -14.4C72.5 3.3 68.2 20.1 60.1 35.3C52.1 50.6 40.2 64.2 24.5 72.1C8.7 79.9 -10.9 81.9 -25.6 74.7C-40.3 67.5 -50.1 51 -59 34.6C-67.9 18.1 -75.9 1.7 -74.3 -14.1C-72.7 -29.9 -61.5 -44.9 -47.5 -54.4C-33.5 -63.8 -16.8 -67.6 1.3 -69.2C19.3 -70.7 38.6 -69.9 51.4 -60.2Z" stroke="#0066FF" fill="none" stroke-width="20"></path></g></g></svg>