<svg id="visual" viewBox="0 0 900 300" width="900" height="300" xmlns="http://www.w3.org/2000/svg" xmlns:xlink="http://www.w3.org/1999/xlink" version="1.1"><rect x="0" y="0" width="900" height="300" fill="#C147E9"></rect><g transform="translate(453.61781821784376 153.15744446506454)"><path d="M31.9 -54.9C39.1 -51.1 41.2 -38 43.7 -27.3C46.2 -16.7 49.1 -8.3 52.4 1.9C55.7 12.2 59.5 24.3 56.2 33.7C53 43.1 42.7 49.7 32.2 49.9C21.7 50 10.8 43.8 0.8 42.5C-9.3 41.2 -18.7 44.8 -25.3 42.4C-31.9 40 -35.9 31.5 -42.4 23.4C-48.9 15.3 -57.9 7.7 -62.1 -2.4C-66.3 -12.5 -65.6 -25 -58.7 -32.4C-51.8 -39.7 -38.7 -41.9 -27.8 -43.7C-17 -45.4 -8.5 -46.7 1.9 -50C12.3 -53.4 24.7 -58.7 31.9 -54.9" fill="#a835cf"></path></g></svg>