<svg id="visual" viewBox="0 0 900 300" width="900" height="300" xmlns="http://www.w3.org/2000/svg" xmlns:xlink="http://www.w3.org/1999/xlink" version="1.1"><rect x="0" y="0" width="900" height="300" fill="#C147E9"></rect><g transform="translate(439.7115083302184 161.64276541659171)"><path d="M32.6 -57.6C41.8 -51.1 48.6 -41.5 53 -31.4C57.3 -21.3 59.1 -10.7 55.4 -2.2C51.6 6.3 42.3 12.7 35.3 18.2C28.3 23.6 23.6 28.3 18.2 32.1C12.7 35.9 6.3 39 -1.6 41.7C-9.5 44.5 -19 46.9 -25.1 43.4C-31.1 39.9 -33.7 30.5 -35.3 22.2C-36.8 14 -37.1 7 -36.6 0.3C-36 -6.3 -34.4 -12.7 -34.4 -23.5C-34.4 -34.3 -36 -49.6 -30.5 -58.3C-25 -67 -12.5 -69 -0.4 -68.3C11.7 -67.5 23.3 -64.1 32.6 -57.6" fill="#a835cf"></path></g></svg>