<svg id="visual" viewBox="0 0 900 100" width="900" height="100" xmlns="http://www.w3.org/2000/svg" xmlns:xlink="http://www.w3.org/1999/xlink" version="1.1"><rect x="0" y="0" width="900" height="100" fill="#000000"></rect><path d="M0 26L21.5 29.2C43 32.3 86 38.7 128.8 37.8C171.7 37 214.3 29 257.2 25C300 21 343 21 385.8 23.3C428.7 25.7 471.3 30.3 514.2 31.2C557 32 600 29 642.8 26.5C685.7 24 728.3 22 771.2 23.3C814 24.7 857 29.3 878.5 31.7L900 34L900 101L878.5 101C857 101 814 101 771.2 101C728.3 101 685.7 101 642.8 101C600 101 557 101 514.2 101C471.3 101 428.7 101 385.8 101C343 101 300 101 257.2 101C214.3 101 171.7 101 128.8 101C86 101 43 101 21.5 101L0 101Z" fill="#3d302f"></path><path d="M0 33L21.5 34.2C43 35.3 86 37.7 128.8 39.5C171.7 41.3 214.3 42.7 257.2 43.7C300 44.7 343 45.3 385.8 47.8C428.7 50.3 471.3 54.7 514.2 56.7C557 58.7 600 58.3 642.8 55.7C685.7 53 728.3 48 771.2 47.7C814 47.3 857 51.7 878.5 53.8L900 56L900 101L878.5 101C857 101 814 101 771.2 101C728.3 101 685.7 101 642.8 101C600 101 557 101 514.2 101C471.3 101 428.7 101 385.8 101C343 101 300 101 257.2 101C214.3 101 171.7 101 128.8 101C86 101 43 101 21.5 101L0 101Z" fill="#3d2228"></path><path d="M0 67L21.5 66.5C43 66 86 65 128.8 62.8C171.7 60.7 214.3 57.3 257.2 55.8C300 54.3 343 54.7 385.8 55C428.7 55.3 471.3 55.7 514.2 54C557 52.3 600 48.7 642.8 47C685.7 45.3 728.3 45.7 771.2 48.5C814 51.3 857 56.7 878.5 59.3L900 62L900 101L878.5 101C857 101 814 101 771.2 101C728.3 101 685.7 101 642.8 101C600 101 557 101 514.2 101C471.3 101 428.7 101 385.8 101C343 101 300 101 257.2 101C214.3 101 171.7 101 128.8 101C86 101 43 101 21.5 101L0 101Z" fill="#381328"></path><path d="M0 65L21.5 66.5C43 68 86 71 128.8 71.8C171.7 72.7 214.3 71.3 257.2 71.8C300 72.3 343 74.7 385.8 75.8C428.7 77 471.3 77 514.2 74.7C557 72.3 600 67.7 642.8 64.8C685.7 62 728.3 61 771.2 60.8C814 60.7 857 61.3 878.5 61.7L900 62L900 101L878.5 101C857 101 814 101 771.2 101C728.3 101 685.7 101 642.8 101C600 101 557 101 514.2 101C471.3 101 428.7 101 385.8 101C343 101 300 101 257.2 101C214.3 101 171.7 101 128.8 101C86 101 43 101 21.5 101L0 101Z" fill="#2a072f"></path><path d="M0 91L21.5 90.5C43 90 86 89 128.8 87.8C171.7 86.7 214.3 85.3 257.2 84C300 82.7 343 81.3 385.8 80.7C428.7 80 471.3 80 514.2 81.5C557 83 600 86 642.8 85.7C685.7 85.3 728.3 81.7 771.2 80.8C814 80 857 82 878.5 83L900 84L900 101L878.5 101C857 101 814 101 771.2 101C728.3 101 685.7 101 642.8 101C600 101 557 101 514.2 101C471.3 101 428.7 101 385.8 101C343 101 300 101 257.2 101C214.3 101 171.7 101 128.8 101C86 101 43 101 21.5 101L0 101Z" fill="#090038"></path></svg>