<svg id="visual" viewBox="0 0 900 100" width="900" height="100" xmlns="http://www.w3.org/2000/svg" xmlns:xlink="http://www.w3.org/1999/xlink" version="1.1"><rect x="0" y="0" width="900" height="100" fill="#810ca8"></rect><path d="M0 39L15 35C30 31 60 23 90 21C120 19 150 23 180 24.3C210 25.7 240 24.3 270 22.2C300 20 330 17 360 19.3C390 21.7 420 29.3 450 29.3C480 29.3 510 21.7 540 16.2C570 10.7 600 7.3 630 14.7C660 22 690 40 720 46.5C750 53 780 48 810 45.3C840 42.7 870 42.3 885 42.2L900 42L900 0L885 0C870 0 840 0 810 0C780 0 750 0 720 0C690 0 660 0 630 0C600 0 570 0 540 0C510 0 480 0 450 0C420 0 390 0 360 0C330 0 300 0 270 0C240 0 210 0 180 0C150 0 120 0 90 0C60 0 30 0 15 0L0 0Z" fill="#2d033b" stroke-linecap="round" stroke-linejoin="miter"></path></svg>