<svg id="visual" viewBox="0 0 900 100" width="900" height="100" xmlns="http://www.w3.org/2000/svg" xmlns:xlink="http://www.w3.org/1999/xlink" version="1.1"><rect x="0" y="0" width="900" height="100" fill="#C147E9"></rect><path d="M0 41L11.5 40.2C23 39.3 46 37.7 69 35.2C92 32.7 115 29.3 138.2 30.2C161.3 31 184.7 36 207.8 38.2C231 40.3 254 39.7 277 41.8C300 44 323 49 346 57.3C369 65.7 392 77.3 415.2 82C438.3 86.7 461.7 84.3 484.8 78.2C508 72 531 62 554 59.2C577 56.3 600 60.7 623 60.3C646 60 669 55 692.2 59.3C715.3 63.7 738.7 77.3 761.8 79.7C785 82 808 73 831 69.8C854 66.7 877 69.3 888.5 70.7L900 72L900 0L888.5 0C877 0 854 0 831 0C808 0 785 0 761.8 0C738.7 0 715.3 0 692.2 0C669 0 646 0 623 0C600 0 577 0 554 0C531 0 508 0 484.8 0C461.7 0 438.3 0 415.2 0C392 0 369 0 346 0C323 0 300 0 277 0C254 0 231 0 207.8 0C184.7 0 161.3 0 138.2 0C115 0 92 0 69 0C46 0 23 0 11.5 0L0 0Z" fill="#c147e9"></path><path d="M0 53L11.5 56.2C23 59.3 46 65.7 69 70.7C92 75.7 115 79.3 138.2 78C161.3 76.7 184.7 70.3 207.8 66.5C231 62.7 254 61.3 277 56.8C300 52.3 323 44.7 346 45.2C369 45.7 392 54.3 415.2 61.7C438.3 69 461.7 75 484.8 75.7C508 76.3 531 71.7 554 69.8C577 68 600 69 623 69.7C646 70.3 669 70.7 692.2 69.8C715.3 69 738.7 67 761.8 67.2C785 67.3 808 69.7 831 70.7C854 71.7 877 71.3 888.5 71.2L900 71L900 0L888.5 0C877 0 854 0 831 0C808 0 785 0 761.8 0C738.7 0 715.3 0 692.2 0C669 0 646 0 623 0C600 0 577 0 554 0C531 0 508 0 484.8 0C461.7 0 438.3 0 415.2 0C392 0 369 0 346 0C323 0 300 0 277 0C254 0 231 0 207.8 0C184.7 0 161.3 0 138.2 0C115 0 92 0 69 0C46 0 23 0 11.5 0L0 0Z" fill="#bb42e3"></path><path d="M0 46L11.5 46.7C23 47.3 46 48.7 69 46.5C92 44.3 115 38.7 138.2 39.7C161.3 40.7 184.7 48.3 207.8 48.3C231 48.3 254 40.7 277 35.5C300 30.3 323 27.7 346 29.8C369 32 392 39 415.2 41.3C438.3 43.7 461.7 41.3 484.8 41.2C508 41 531 43 554 43.7C577 44.3 600 43.7 623 42.3C646 41 669 39 692.2 36.5C715.3 34 738.7 31 761.8 33.3C785 35.7 808 43.3 831 45.3C854 47.3 877 43.7 888.5 41.8L900 40L900 0L888.5 0C877 0 854 0 831 0C808 0 785 0 761.8 0C738.7 0 715.3 0 692.2 0C669 0 646 0 623 0C600 0 577 0 554 0C531 0 508 0 484.8 0C461.7 0 438.3 0 415.2 0C392 0 369 0 346 0C323 0 300 0 277 0C254 0 231 0 207.8 0C184.7 0 161.3 0 138.2 0C115 0 92 0 69 0C46 0 23 0 11.5 0L0 0Z" fill="#b53edd"></path><path d="M0 27L11.5 29.2C23 31.3 46 35.7 69 35C92 34.3 115 28.7 138.2 27C161.3 25.3 184.7 27.7 207.8 34.5C231 41.3 254 52.7 277 53.3C300 54 323 44 346 37.5C369 31 392 28 415.2 27.7C438.3 27.3 461.7 29.7 484.8 34.5C508 39.3 531 46.7 554 44.7C577 42.7 600 31.3 623 32.8C646 34.3 669 48.7 692.2 56.3C715.3 64 738.7 65 761.8 64.3C785 63.7 808 61.3 831 56.8C854 52.3 877 45.7 888.5 42.3L900 39L900 0L888.5 0C877 0 854 0 831 0C808 0 785 0 761.8 0C738.7 0 715.3 0 692.2 0C669 0 646 0 623 0C600 0 577 0 554 0C531 0 508 0 484.8 0C461.7 0 438.3 0 415.2 0C392 0 369 0 346 0C323 0 300 0 277 0C254 0 231 0 207.8 0C184.7 0 161.3 0 138.2 0C115 0 92 0 69 0C46 0 23 0 11.5 0L0 0Z" fill="#af39d7"></path><path d="M0 36L11.5 37.5C23 39 46 42 69 44.3C92 46.7 115 48.3 138.2 51.2C161.3 54 184.7 58 207.8 54.2C231 50.3 254 38.7 277 36.5C300 34.3 323 41.7 346 47.5C369 53.3 392 57.7 415.2 53.5C438.3 49.3 461.7 36.7 484.8 33.2C508 29.7 531 35.3 554 36.7C577 38 600 35 623 34.7C646 34.3 669 36.7 692.2 36.8C715.3 37 738.7 35 761.8 31.2C785 27.3 808 21.7 831 20.8C854 20 877 24 888.5 26L900 28L900 0L888.5 0C877 0 854 0 831 0C808 0 785 0 761.8 0C738.7 0 715.3 0 692.2 0C669 0 646 0 623 0C600 0 577 0 554 0C531 0 508 0 484.8 0C461.7 0 438.3 0 415.2 0C392 0 369 0 346 0C323 0 300 0 277 0C254 0 231 0 207.8 0C184.7 0 161.3 0 138.2 0C115 0 92 0 69 0C46 0 23 0 11.5 0L0 0Z" fill="#aa34d1"></path><path d="M0 26L11.5 30.5C23 35 46 44 69 45.3C92 46.7 115 40.3 138.2 33.8C161.3 27.3 184.7 20.7 207.8 21.8C231 23 254 32 277 34.7C300 37.3 323 33.7 346 36C369 38.3 392 46.7 415.2 48.8C438.3 51 461.7 47 484.8 40.5C508 34 531 25 554 22C577 19 600 22 623 21.8C646 21.7 669 18.3 692.2 16.7C715.3 15 738.7 15 761.8 17.7C785 20.3 808 25.7 831 27.8C854 30 877 29 888.5 28.5L900 28L900 0L888.5 0C877 0 854 0 831 0C808 0 785 0 761.8 0C738.7 0 715.3 0 692.2 0C669 0 646 0 623 0C600 0 577 0 554 0C531 0 508 0 484.8 0C461.7 0 438.3 0 415.2 0C392 0 369 0 346 0C323 0 300 0 277 0C254 0 231 0 207.8 0C184.7 0 161.3 0 138.2 0C115 0 92 0 69 0C46 0 23 0 11.5 0L0 0Z" fill="#a42fcb"></path><path d="M0 46L11.5 41.7C23 37.3 46 28.7 69 26.3C92 24 115 28 138.2 28C161.3 28 184.7 24 207.8 21.3C231 18.7 254 17.3 277 17.7C300 18 323 20 346 22.2C369 24.3 392 26.7 415.2 28.2C438.3 29.7 461.7 30.3 484.8 29.8C508 29.3 531 27.7 554 26.2C577 24.7 600 23.3 623 23.7C646 24 669 26 692.2 28C715.3 30 738.7 32 761.8 34.8C785 37.7 808 41.3 831 41.3C854 41.3 877 37.7 888.5 35.8L900 34L900 0L888.5 0C877 0 854 0 831 0C808 0 785 0 761.8 0C738.7 0 715.3 0 692.2 0C669 0 646 0 623 0C600 0 577 0 554 0C531 0 508 0 484.8 0C461.7 0 438.3 0 415.2 0C392 0 369 0 346 0C323 0 300 0 277 0C254 0 231 0 207.8 0C184.7 0 161.3 0 138.2 0C115 0 92 0 69 0C46 0 23 0 11.5 0L0 0Z" fill="#9e2ac5"></path><path d="M0 22L11.5 24.2C23 26.3 46 30.7 69 30.2C92 29.7 115 24.3 138.2 23.3C161.3 22.3 184.7 25.7 207.8 27C231 28.3 254 27.7 277 25.7C300 23.7 323 20.3 346 21.2C369 22 392 27 415.2 30C438.3 33 461.7 34 484.8 35.3C508 36.7 531 38.3 554 39.2C577 40 600 40 623 39.7C646 39.3 669 38.7 692.2 35.2C715.3 31.7 738.7 25.3 761.8 25.2C785 25 808 31 831 31.2C854 31.3 877 25.7 888.5 22.8L900 20L900 0L888.5 0C877 0 854 0 831 0C808 0 785 0 761.8 0C738.7 0 715.3 0 692.2 0C669 0 646 0 623 0C600 0 577 0 554 0C531 0 508 0 484.8 0C461.7 0 438.3 0 415.2 0C392 0 369 0 346 0C323 0 300 0 277 0C254 0 231 0 207.8 0C184.7 0 161.3 0 138.2 0C115 0 92 0 69 0C46 0 23 0 11.5 0L0 0Z" fill="#9825bf"></path><path d="M0 11L11.5 11C23 11 46 11 69 14C92 17 115 23 138.2 23.3C161.3 23.7 184.7 18.3 207.8 17.2C231 16 254 19 277 21.2C300 23.3 323 24.7 346 23.5C369 22.3 392 18.7 415.2 19C438.3 19.3 461.7 23.7 484.8 22.7C508 21.7 531 15.3 554 16.3C577 17.3 600 25.7 623 29.5C646 33.3 669 32.7 692.2 30.5C715.3 28.3 738.7 24.7 761.8 25C785 25.3 808 29.7 831 31.7C854 33.7 877 33.3 888.5 33.2L900 33L900 0L888.5 0C877 0 854 0 831 0C808 0 785 0 761.8 0C738.7 0 715.3 0 692.2 0C669 0 646 0 623 0C600 0 577 0 554 0C531 0 508 0 484.8 0C461.7 0 438.3 0 415.2 0C392 0 369 0 346 0C323 0 300 0 277 0C254 0 231 0 207.8 0C184.7 0 161.3 0 138.2 0C115 0 92 0 69 0C46 0 23 0 11.5 0L0 0Z" fill="#9220b9"></path><path d="M0 15L11.5 14.8C23 14.7 46 14.3 69 15.8C92 17.3 115 20.7 138.2 20.8C161.3 21 184.7 18 207.8 18C231 18 254 21 277 21.5C300 22 323 20 346 17.7C369 15.3 392 12.7 415.2 13.8C438.3 15 461.7 20 484.8 21C508 22 531 19 554 17.5C577 16 600 16 623 14.8C646 13.7 669 11.3 692.2 10C715.3 8.7 738.7 8.3 761.8 10.5C785 12.7 808 17.3 831 17.3C854 17.3 877 12.7 888.5 10.3L900 8L900 0L888.5 0C877 0 854 0 831 0C808 0 785 0 761.8 0C738.7 0 715.3 0 692.2 0C669 0 646 0 623 0C600 0 577 0 554 0C531 0 508 0 484.8 0C461.7 0 438.3 0 415.2 0C392 0 369 0 346 0C323 0 300 0 277 0C254 0 231 0 207.8 0C184.7 0 161.3 0 138.2 0C115 0 92 0 69 0C46 0 23 0 11.5 0L0 0Z" fill="#8d1ab4"></path><path d="M0 16L11.5 14.5C23 13 46 10 69 8.8C92 7.7 115 8.3 138.2 9.3C161.3 10.3 184.7 11.7 207.8 11.8C231 12 254 11 277 11.5C300 12 323 14 346 14.2C369 14.3 392 12.7 415.2 11.7C438.3 10.7 461.7 10.3 484.8 9C508 7.7 531 5.3 554 5.2C577 5 600 7 623 7C646 7 669 5 692.2 4.3C715.3 3.7 738.7 4.3 761.8 6.2C785 8 808 11 831 12.2C854 13.3 877 12.7 888.5 12.3L900 12L900 0L888.5 0C877 0 854 0 831 0C808 0 785 0 761.8 0C738.7 0 715.3 0 692.2 0C669 0 646 0 623 0C600 0 577 0 554 0C531 0 508 0 484.8 0C461.7 0 438.3 0 415.2 0C392 0 369 0 346 0C323 0 300 0 277 0C254 0 231 0 207.8 0C184.7 0 161.3 0 138.2 0C115 0 92 0 69 0C46 0 23 0 11.5 0L0 0Z" fill="#8714ae"></path><path d="M0 1L11.5 1.3C23 1.7 46 2.3 69 2.7C92 3 115 3 138.2 3.7C161.3 4.3 184.7 5.7 207.8 6.7C231 7.7 254 8.3 277 8C300 7.7 323 6.3 346 5.2C369 4 392 3 415.2 3.3C438.3 3.7 461.7 5.3 484.8 6C508 6.7 531 6.3 554 7C577 7.7 600 9.3 623 9.3C646 9.3 669 7.7 692.2 6.3C715.3 5 738.7 4 761.8 3.5C785 3 808 3 831 4.2C854 5.3 877 7.7 888.5 8.8L900 10L900 0L888.5 0C877 0 854 0 831 0C808 0 785 0 761.8 0C738.7 0 715.3 0 692.2 0C669 0 646 0 623 0C600 0 577 0 554 0C531 0 508 0 484.8 0C461.7 0 438.3 0 415.2 0C392 0 369 0 346 0C323 0 300 0 277 0C254 0 231 0 207.8 0C184.7 0 161.3 0 138.2 0C115 0 92 0 69 0C46 0 23 0 11.5 0L0 0Z" fill="#810ca8"></path></svg>