<svg id="visual" viewBox="0 0 900 100" width="900" height="100" xmlns="http://www.w3.org/2000/svg" xmlns:xlink="http://www.w3.org/1999/xlink" version="1.1"><rect x="0" y="0" width="900" height="100" fill="#c147e9"></rect><path d="M0 36L9.3 42.3C18.7 48.7 37.3 61.3 56.2 61.5C75 61.7 94 49.3 112.8 42.8C131.7 36.3 150.3 35.7 169 41.5C187.7 47.3 206.3 59.7 225 65.7C243.7 71.7 262.3 71.3 281.2 67C300 62.7 319 54.3 337.8 50.2C356.7 46 375.3 46 394 50.5C412.7 55 431.3 64 450 65.8C468.7 67.7 487.3 62.3 506.2 62.5C525 62.7 544 68.3 562.8 64.7C581.7 61 600.3 48 619 48.7C637.7 49.3 656.3 63.7 675 64.8C693.7 66 712.3 54 731.2 45.2C750 36.3 769 30.7 787.8 29.5C806.7 28.3 825.3 31.7 844 31.7C862.7 31.7 881.3 28.3 890.7 26.7L900 25L900 101L890.7 101C881.3 101 862.7 101 844 101C825.3 101 806.7 101 787.8 101C769 101 750 101 731.2 101C712.3 101 693.7 101 675 101C656.3 101 637.7 101 619 101C600.3 101 581.7 101 562.8 101C544 101 525 101 506.2 101C487.3 101 468.7 101 450 101C431.3 101 412.7 101 394 101C375.3 101 356.7 101 337.8 101C319 101 300 101 281.2 101C262.3 101 243.7 101 225 101C206.3 101 187.7 101 169 101C150.3 101 131.7 101 112.8 101C94 101 75 101 56.2 101C37.3 101 18.7 101 9.3 101L0 101Z" fill="#c147e9"></path><path d="M0 44L9.3 43.3C18.7 42.7 37.3 41.3 56.2 44.2C75 47 94 54 112.8 60.2C131.7 66.3 150.3 71.7 169 68.5C187.7 65.3 206.3 53.7 225 52.2C243.7 50.7 262.3 59.3 281.2 62.3C300 65.3 319 62.7 337.8 56.5C356.7 50.3 375.3 40.7 394 42.2C412.7 43.7 431.3 56.3 450 58.7C468.7 61 487.3 53 506.2 54.2C525 55.3 544 65.7 562.8 68.3C581.7 71 600.3 66 619 64.5C637.7 63 656.3 65 675 62.7C693.7 60.3 712.3 53.7 731.2 49.5C750 45.3 769 43.7 787.8 46.8C806.7 50 825.3 58 844 58.5C862.7 59 881.3 52 890.7 48.5L900 45L900 101L890.7 101C881.3 101 862.7 101 844 101C825.3 101 806.7 101 787.8 101C769 101 750 101 731.2 101C712.3 101 693.7 101 675 101C656.3 101 637.7 101 619 101C600.3 101 581.7 101 562.8 101C544 101 525 101 506.2 101C487.3 101 468.7 101 450 101C431.3 101 412.7 101 394 101C375.3 101 356.7 101 337.8 101C319 101 300 101 281.2 101C262.3 101 243.7 101 225 101C206.3 101 187.7 101 169 101C150.3 101 131.7 101 112.8 101C94 101 75 101 56.2 101C37.3 101 18.7 101 9.3 101L0 101Z" fill="#b042d5"></path><path d="M0 32L9.3 33C18.7 34 37.3 36 56.2 36.5C75 37 94 36 112.8 41C131.7 46 150.3 57 169 61.2C187.7 65.3 206.3 62.7 225 57.5C243.7 52.3 262.3 44.7 281.2 46C300 47.3 319 57.7 337.8 59.2C356.7 60.7 375.3 53.3 394 52.8C412.7 52.3 431.3 58.7 450 56.8C468.7 55 487.3 45 506.2 40.5C525 36 544 37 562.8 38C581.7 39 600.3 40 619 46C637.7 52 656.3 63 675 68.5C693.7 74 712.3 74 731.2 70.8C750 67.7 769 61.3 787.8 59C806.7 56.7 825.3 58.3 844 60.8C862.7 63.3 881.3 66.7 890.7 68.3L900 70L900 101L890.7 101C881.3 101 862.7 101 844 101C825.3 101 806.7 101 787.8 101C769 101 750 101 731.2 101C712.3 101 693.7 101 675 101C656.3 101 637.7 101 619 101C600.3 101 581.7 101 562.8 101C544 101 525 101 506.2 101C487.3 101 468.7 101 450 101C431.3 101 412.7 101 394 101C375.3 101 356.7 101 337.8 101C319 101 300 101 281.2 101C262.3 101 243.7 101 225 101C206.3 101 187.7 101 169 101C150.3 101 131.7 101 112.8 101C94 101 75 101 56.2 101C37.3 101 18.7 101 9.3 101L0 101Z" fill="#9f3dc1"></path><path d="M0 81L9.3 78.5C18.7 76 37.3 71 56.2 64C75 57 94 48 112.8 44C131.7 40 150.3 41 169 48.3C187.7 55.7 206.3 69.3 225 73.8C243.7 78.3 262.3 73.7 281.2 69.8C300 66 319 63 337.8 62.7C356.7 62.3 375.3 64.7 394 62.2C412.7 59.7 431.3 52.3 450 50.5C468.7 48.7 487.3 52.3 506.2 55.5C525 58.7 544 61.3 562.8 59.8C581.7 58.3 600.3 52.7 619 55.2C637.7 57.7 656.3 68.3 675 73.7C693.7 79 712.3 79 731.2 76.7C750 74.3 769 69.7 787.8 70.3C806.7 71 825.3 77 844 76.2C862.7 75.3 881.3 67.7 890.7 63.8L900 60L900 101L890.7 101C881.3 101 862.7 101 844 101C825.3 101 806.7 101 787.8 101C769 101 750 101 731.2 101C712.3 101 693.7 101 675 101C656.3 101 637.7 101 619 101C600.3 101 581.7 101 562.8 101C544 101 525 101 506.2 101C487.3 101 468.7 101 450 101C431.3 101 412.7 101 394 101C375.3 101 356.7 101 337.8 101C319 101 300 101 281.2 101C262.3 101 243.7 101 225 101C206.3 101 187.7 101 169 101C150.3 101 131.7 101 112.8 101C94 101 75 101 56.2 101C37.3 101 18.7 101 9.3 101L0 101Z" fill="#8f38ad"></path><path d="M0 55L9.3 57.7C18.7 60.3 37.3 65.7 56.2 67C75 68.3 94 65.7 112.8 64.8C131.7 64 150.3 65 169 66.3C187.7 67.7 206.3 69.3 225 72.5C243.7 75.7 262.3 80.3 281.2 81.7C300 83 319 81 337.8 77.8C356.7 74.7 375.3 70.3 394 68.8C412.7 67.3 431.3 68.7 450 71.5C468.7 74.3 487.3 78.7 506.2 78.7C525 78.7 544 74.3 562.8 71C581.7 67.7 600.3 65.3 619 66C637.7 66.7 656.3 70.3 675 73.3C693.7 76.3 712.3 78.7 731.2 75.2C750 71.7 769 62.3 787.8 60.2C806.7 58 825.3 63 844 64.5C862.7 66 881.3 64 890.7 63L900 62L900 101L890.7 101C881.3 101 862.7 101 844 101C825.3 101 806.7 101 787.8 101C769 101 750 101 731.2 101C712.3 101 693.7 101 675 101C656.3 101 637.7 101 619 101C600.3 101 581.7 101 562.8 101C544 101 525 101 506.2 101C487.3 101 468.7 101 450 101C431.3 101 412.7 101 394 101C375.3 101 356.7 101 337.8 101C319 101 300 101 281.2 101C262.3 101 243.7 101 225 101C206.3 101 187.7 101 169 101C150.3 101 131.7 101 112.8 101C94 101 75 101 56.2 101C37.3 101 18.7 101 9.3 101L0 101Z" fill="#7f339a"></path><path d="M0 73L9.3 72.8C18.7 72.7 37.3 72.3 56.2 70.3C75 68.3 94 64.7 112.8 63.8C131.7 63 150.3 65 169 67.3C187.7 69.7 206.3 72.3 225 71.2C243.7 70 262.3 65 281.2 66.7C300 68.3 319 76.7 337.8 78.8C356.7 81 375.3 77 394 75C412.7 73 431.3 73 450 71.2C468.7 69.3 487.3 65.7 506.2 67.7C525 69.7 544 77.3 562.8 76.8C581.7 76.3 600.3 67.7 619 65.3C637.7 63 656.3 67 675 68.3C693.7 69.7 712.3 68.3 731.2 67.2C750 66 769 65 787.8 63.5C806.7 62 825.3 60 844 62.3C862.7 64.7 881.3 71.3 890.7 74.7L900 78L900 101L890.7 101C881.3 101 862.7 101 844 101C825.3 101 806.7 101 787.8 101C769 101 750 101 731.2 101C712.3 101 693.7 101 675 101C656.3 101 637.7 101 619 101C600.3 101 581.7 101 562.8 101C544 101 525 101 506.2 101C487.3 101 468.7 101 450 101C431.3 101 412.7 101 394 101C375.3 101 356.7 101 337.8 101C319 101 300 101 281.2 101C262.3 101 243.7 101 225 101C206.3 101 187.7 101 169 101C150.3 101 131.7 101 112.8 101C94 101 75 101 56.2 101C37.3 101 18.7 101 9.3 101L0 101Z" fill="#702e87"></path><path d="M0 59L9.3 63.3C18.7 67.7 37.3 76.3 56.2 79.3C75 82.3 94 79.7 112.8 78C131.7 76.3 150.3 75.7 169 76.5C187.7 77.3 206.3 79.7 225 76.8C243.7 74 262.3 66 281.2 66.7C300 67.3 319 76.7 337.8 76.7C356.7 76.7 375.3 67.3 394 67.5C412.7 67.7 431.3 77.3 450 80.2C468.7 83 487.3 79 506.2 78.7C525 78.3 544 81.7 562.8 82.5C581.7 83.3 600.3 81.7 619 78.2C637.7 74.7 656.3 69.3 675 69.8C693.7 70.3 712.3 76.7 731.2 80.3C750 84 769 85 787.8 85C806.7 85 825.3 84 844 80.2C862.7 76.3 881.3 69.7 890.7 66.3L900 63L900 101L890.7 101C881.3 101 862.7 101 844 101C825.3 101 806.7 101 787.8 101C769 101 750 101 731.2 101C712.3 101 693.7 101 675 101C656.3 101 637.7 101 619 101C600.3 101 581.7 101 562.8 101C544 101 525 101 506.2 101C487.3 101 468.7 101 450 101C431.3 101 412.7 101 394 101C375.3 101 356.7 101 337.8 101C319 101 300 101 281.2 101C262.3 101 243.7 101 225 101C206.3 101 187.7 101 169 101C150.3 101 131.7 101 112.8 101C94 101 75 101 56.2 101C37.3 101 18.7 101 9.3 101L0 101Z" fill="#612875"></path><path d="M0 83L9.3 82.8C18.7 82.7 37.3 82.3 56.2 82.7C75 83 94 84 112.8 80.8C131.7 77.7 150.3 70.3 169 66.5C187.7 62.7 206.3 62.3 225 63.8C243.7 65.3 262.3 68.7 281.2 73C300 77.3 319 82.7 337.8 84.7C356.7 86.7 375.3 85.3 394 83.5C412.7 81.7 431.3 79.3 450 77.8C468.7 76.3 487.3 75.7 506.2 76.7C525 77.7 544 80.3 562.8 80.8C581.7 81.3 600.3 79.7 619 80.7C637.7 81.7 656.3 85.3 675 84.2C693.7 83 712.3 77 731.2 76.5C750 76 769 81 787.8 81C806.7 81 825.3 76 844 75.2C862.7 74.3 881.3 77.7 890.7 79.3L900 81L900 101L890.7 101C881.3 101 862.7 101 844 101C825.3 101 806.7 101 787.8 101C769 101 750 101 731.2 101C712.3 101 693.7 101 675 101C656.3 101 637.7 101 619 101C600.3 101 581.7 101 562.8 101C544 101 525 101 506.2 101C487.3 101 468.7 101 450 101C431.3 101 412.7 101 394 101C375.3 101 356.7 101 337.8 101C319 101 300 101 281.2 101C262.3 101 243.7 101 225 101C206.3 101 187.7 101 169 101C150.3 101 131.7 101 112.8 101C94 101 75 101 56.2 101C37.3 101 18.7 101 9.3 101L0 101Z" fill="#522363"></path><path d="M0 81L9.3 81C18.7 81 37.3 81 56.2 80.5C75 80 94 79 112.8 78.3C131.7 77.7 150.3 77.3 169 79.3C187.7 81.3 206.3 85.7 225 86.3C243.7 87 262.3 84 281.2 82.7C300 81.3 319 81.7 337.8 82C356.7 82.3 375.3 82.7 394 83.5C412.7 84.3 431.3 85.7 450 86.2C468.7 86.7 487.3 86.3 506.2 86.3C525 86.3 544 86.7 562.8 87.5C581.7 88.3 600.3 89.7 619 89.2C637.7 88.7 656.3 86.3 675 82.7C693.7 79 712.3 74 731.2 73C750 72 769 75 787.8 75.8C806.7 76.7 825.3 75.3 844 76.5C862.7 77.7 881.3 81.3 890.7 83.2L900 85L900 101L890.7 101C881.3 101 862.7 101 844 101C825.3 101 806.7 101 787.8 101C769 101 750 101 731.2 101C712.3 101 693.7 101 675 101C656.3 101 637.7 101 619 101C600.3 101 581.7 101 562.8 101C544 101 525 101 506.2 101C487.3 101 468.7 101 450 101C431.3 101 412.7 101 394 101C375.3 101 356.7 101 337.8 101C319 101 300 101 281.2 101C262.3 101 243.7 101 225 101C206.3 101 187.7 101 169 101C150.3 101 131.7 101 112.8 101C94 101 75 101 56.2 101C37.3 101 18.7 101 9.3 101L0 101Z" fill="#441e52"></path><path d="M0 77L9.3 77.5C18.7 78 37.3 79 56.2 80C75 81 94 82 112.8 83C131.7 84 150.3 85 169 84.5C187.7 84 206.3 82 225 83C243.7 84 262.3 88 281.2 88.7C300 89.3 319 86.7 337.8 84.5C356.7 82.3 375.3 80.7 394 79.3C412.7 78 431.3 77 450 78C468.7 79 487.3 82 506.2 81.7C525 81.3 544 77.7 562.8 76.5C581.7 75.3 600.3 76.7 619 79C637.7 81.3 656.3 84.7 675 84.8C693.7 85 712.3 82 731.2 80.8C750 79.7 769 80.3 787.8 81.8C806.7 83.3 825.3 85.7 844 85.5C862.7 85.3 881.3 82.7 890.7 81.3L900 80L900 101L890.7 101C881.3 101 862.7 101 844 101C825.3 101 806.7 101 787.8 101C769 101 750 101 731.2 101C712.3 101 693.7 101 675 101C656.3 101 637.7 101 619 101C600.3 101 581.7 101 562.8 101C544 101 525 101 506.2 101C487.3 101 468.7 101 450 101C431.3 101 412.7 101 394 101C375.3 101 356.7 101 337.8 101C319 101 300 101 281.2 101C262.3 101 243.7 101 225 101C206.3 101 187.7 101 169 101C150.3 101 131.7 101 112.8 101C94 101 75 101 56.2 101C37.3 101 18.7 101 9.3 101L0 101Z" fill="#361941"></path><path d="M0 87L9.3 87.2C18.7 87.3 37.3 87.7 56.2 88.8C75 90 94 92 112.8 91.2C131.7 90.3 150.3 86.7 169 85C187.7 83.3 206.3 83.7 225 84.7C243.7 85.7 262.3 87.3 281.2 86.8C300 86.3 319 83.7 337.8 82.5C356.7 81.3 375.3 81.7 394 83.7C412.7 85.7 431.3 89.3 450 91.2C468.7 93 487.3 93 506.2 92.2C525 91.3 544 89.7 562.8 87.8C581.7 86 600.3 84 619 84.3C637.7 84.7 656.3 87.3 675 89C693.7 90.7 712.3 91.3 731.2 91.2C750 91 769 90 787.8 89.7C806.7 89.3 825.3 89.7 844 89.3C862.7 89 881.3 88 890.7 87.5L900 87L900 101L890.7 101C881.3 101 862.7 101 844 101C825.3 101 806.7 101 787.8 101C769 101 750 101 731.2 101C712.3 101 693.7 101 675 101C656.3 101 637.7 101 619 101C600.3 101 581.7 101 562.8 101C544 101 525 101 506.2 101C487.3 101 468.7 101 450 101C431.3 101 412.7 101 394 101C375.3 101 356.7 101 337.8 101C319 101 300 101 281.2 101C262.3 101 243.7 101 225 101C206.3 101 187.7 101 169 101C150.3 101 131.7 101 112.8 101C94 101 75 101 56.2 101C37.3 101 18.7 101 9.3 101L0 101Z" fill="#291331"></path><path d="M0 89L9.3 89.5C18.7 90 37.3 91 56.2 91.2C75 91.3 94 90.7 112.8 91.2C131.7 91.7 150.3 93.3 169 93C187.7 92.7 206.3 90.3 225 89.2C243.7 88 262.3 88 281.2 89.2C300 90.3 319 92.7 337.8 92.5C356.7 92.3 375.3 89.7 394 89.5C412.7 89.3 431.3 91.7 450 92.8C468.7 94 487.3 94 506.2 94C525 94 544 94 562.8 92.8C581.7 91.7 600.3 89.3 619 89.7C637.7 90 656.3 93 675 93C693.7 93 712.3 90 731.2 89.5C750 89 769 91 787.8 91.7C806.7 92.3 825.3 91.7 844 90.8C862.7 90 881.3 89 890.7 88.5L900 88L900 101L890.7 101C881.3 101 862.7 101 844 101C825.3 101 806.7 101 787.8 101C769 101 750 101 731.2 101C712.3 101 693.7 101 675 101C656.3 101 637.7 101 619 101C600.3 101 581.7 101 562.8 101C544 101 525 101 506.2 101C487.3 101 468.7 101 450 101C431.3 101 412.7 101 394 101C375.3 101 356.7 101 337.8 101C319 101 300 101 281.2 101C262.3 101 243.7 101 225 101C206.3 101 187.7 101 169 101C150.3 101 131.7 101 112.8 101C94 101 75 101 56.2 101C37.3 101 18.7 101 9.3 101L0 101Z" fill="#1d0d22"></path></svg>