<svg id="visual" viewBox="0 0 900 100" width="900" height="100" xmlns="http://www.w3.org/2000/svg" xmlns:xlink="http://www.w3.org/1999/xlink" version="1.1"><rect x="0" y="0" width="900" height="100" fill="#1d0d22"></rect><path d="M0 62L9.3 55.7C18.7 49.3 37.3 36.7 56.2 36.5C75 36.3 94 48.7 112.8 55.2C131.7 61.7 150.3 62.3 169 56.5C187.7 50.7 206.3 38.3 225 32.3C243.7 26.3 262.3 26.7 281.2 31C300 35.3 319 43.7 337.8 47.8C356.7 52 375.3 52 394 47.5C412.7 43 431.3 34 450 32.2C468.7 30.3 487.3 35.7 506.2 35.5C525 35.3 544 29.7 562.8 33.3C581.7 37 600.3 50 619 49.3C637.7 48.7 656.3 34.3 675 33.2C693.7 32 712.3 44 731.2 52.8C750 61.7 769 67.3 787.8 68.5C806.7 69.7 825.3 66.3 844 66.3C862.7 66.3 881.3 69.7 890.7 71.3L900 73L900 0L890.7 0C881.3 0 862.7 0 844 0C825.3 0 806.7 0 787.8 0C769 0 750 0 731.2 0C712.3 0 693.7 0 675 0C656.3 0 637.7 0 619 0C600.3 0 581.7 0 562.8 0C544 0 525 0 506.2 0C487.3 0 468.7 0 450 0C431.3 0 412.7 0 394 0C375.3 0 356.7 0 337.8 0C319 0 300 0 281.2 0C262.3 0 243.7 0 225 0C206.3 0 187.7 0 169 0C150.3 0 131.7 0 112.8 0C94 0 75 0 56.2 0C37.3 0 18.7 0 9.3 0L0 0Z" fill="#c147e9"></path><path d="M0 54L9.3 54.7C18.7 55.3 37.3 56.7 56.2 53.8C75 51 94 44 112.8 37.8C131.7 31.7 150.3 26.3 169 29.5C187.7 32.7 206.3 44.3 225 45.8C243.7 47.3 262.3 38.7 281.2 35.7C300 32.7 319 35.3 337.8 41.5C356.7 47.7 375.3 57.3 394 55.8C412.7 54.3 431.3 41.7 450 39.3C468.7 37 487.3 45 506.2 43.8C525 42.7 544 32.3 562.8 29.7C581.7 27 600.3 32 619 33.5C637.7 35 656.3 33 675 35.3C693.7 37.7 712.3 44.3 731.2 48.5C750 52.7 769 54.3 787.8 51.2C806.7 48 825.3 40 844 39.5C862.7 39 881.3 46 890.7 49.5L900 53L900 0L890.7 0C881.3 0 862.7 0 844 0C825.3 0 806.7 0 787.8 0C769 0 750 0 731.2 0C712.3 0 693.7 0 675 0C656.3 0 637.7 0 619 0C600.3 0 581.7 0 562.8 0C544 0 525 0 506.2 0C487.3 0 468.7 0 450 0C431.3 0 412.7 0 394 0C375.3 0 356.7 0 337.8 0C319 0 300 0 281.2 0C262.3 0 243.7 0 225 0C206.3 0 187.7 0 169 0C150.3 0 131.7 0 112.8 0C94 0 75 0 56.2 0C37.3 0 18.7 0 9.3 0L0 0Z" fill="#b042d5"></path><path d="M0 66L9.3 65C18.7 64 37.3 62 56.2 61.5C75 61 94 62 112.8 57C131.7 52 150.3 41 169 36.8C187.7 32.7 206.3 35.3 225 40.5C243.7 45.7 262.3 53.3 281.2 52C300 50.7 319 40.3 337.8 38.8C356.7 37.3 375.3 44.7 394 45.2C412.7 45.7 431.3 39.3 450 41.2C468.7 43 487.3 53 506.2 57.5C525 62 544 61 562.8 60C581.7 59 600.3 58 619 52C637.7 46 656.3 35 675 29.5C693.7 24 712.3 24 731.2 27.2C750 30.3 769 36.7 787.8 39C806.7 41.3 825.3 39.7 844 37.2C862.7 34.7 881.3 31.3 890.7 29.7L900 28L900 0L890.7 0C881.3 0 862.7 0 844 0C825.3 0 806.7 0 787.8 0C769 0 750 0 731.2 0C712.3 0 693.7 0 675 0C656.3 0 637.7 0 619 0C600.3 0 581.7 0 562.8 0C544 0 525 0 506.2 0C487.3 0 468.7 0 450 0C431.3 0 412.7 0 394 0C375.3 0 356.7 0 337.8 0C319 0 300 0 281.2 0C262.3 0 243.7 0 225 0C206.3 0 187.7 0 169 0C150.3 0 131.7 0 112.8 0C94 0 75 0 56.2 0C37.3 0 18.7 0 9.3 0L0 0Z" fill="#9f3dc1"></path><path d="M0 17L9.3 19.5C18.7 22 37.3 27 56.2 34C75 41 94 50 112.8 54C131.7 58 150.3 57 169 49.7C187.7 42.3 206.3 28.7 225 24.2C243.7 19.7 262.3 24.3 281.2 28.2C300 32 319 35 337.8 35.3C356.7 35.7 375.3 33.3 394 35.8C412.7 38.3 431.3 45.7 450 47.5C468.7 49.3 487.3 45.7 506.2 42.5C525 39.3 544 36.7 562.8 38.2C581.7 39.7 600.3 45.3 619 42.8C637.7 40.3 656.3 29.7 675 24.3C693.7 19 712.3 19 731.2 21.3C750 23.7 769 28.3 787.8 27.7C806.7 27 825.3 21 844 21.8C862.7 22.7 881.3 30.3 890.7 34.2L900 38L900 0L890.7 0C881.3 0 862.7 0 844 0C825.3 0 806.7 0 787.8 0C769 0 750 0 731.2 0C712.3 0 693.7 0 675 0C656.3 0 637.7 0 619 0C600.3 0 581.7 0 562.8 0C544 0 525 0 506.2 0C487.3 0 468.7 0 450 0C431.3 0 412.7 0 394 0C375.3 0 356.7 0 337.8 0C319 0 300 0 281.2 0C262.3 0 243.7 0 225 0C206.3 0 187.7 0 169 0C150.3 0 131.7 0 112.8 0C94 0 75 0 56.2 0C37.3 0 18.7 0 9.3 0L0 0Z" fill="#8f38ad"></path><path d="M0 43L9.3 40.3C18.7 37.7 37.3 32.3 56.2 31C75 29.7 94 32.3 112.8 33.2C131.7 34 150.3 33 169 31.7C187.7 30.3 206.3 28.7 225 25.5C243.7 22.3 262.3 17.7 281.2 16.3C300 15 319 17 337.8 20.2C356.7 23.3 375.3 27.7 394 29.2C412.7 30.7 431.3 29.3 450 26.5C468.7 23.7 487.3 19.3 506.2 19.3C525 19.3 544 23.7 562.8 27C581.7 30.3 600.3 32.7 619 32C637.7 31.3 656.3 27.7 675 24.7C693.7 21.7 712.3 19.3 731.2 22.8C750 26.3 769 35.7 787.8 37.8C806.7 40 825.3 35 844 33.5C862.7 32 881.3 34 890.7 35L900 36L900 0L890.7 0C881.3 0 862.7 0 844 0C825.3 0 806.7 0 787.8 0C769 0 750 0 731.2 0C712.3 0 693.7 0 675 0C656.3 0 637.7 0 619 0C600.3 0 581.7 0 562.8 0C544 0 525 0 506.2 0C487.3 0 468.7 0 450 0C431.3 0 412.7 0 394 0C375.3 0 356.7 0 337.8 0C319 0 300 0 281.2 0C262.3 0 243.7 0 225 0C206.3 0 187.7 0 169 0C150.3 0 131.7 0 112.8 0C94 0 75 0 56.2 0C37.3 0 18.7 0 9.3 0L0 0Z" fill="#7f339a"></path><path d="M0 25L9.3 25.2C18.7 25.3 37.3 25.7 56.2 27.7C75 29.7 94 33.3 112.8 34.2C131.7 35 150.3 33 169 30.7C187.7 28.3 206.3 25.7 225 26.8C243.7 28 262.3 33 281.2 31.3C300 29.7 319 21.3 337.8 19.2C356.7 17 375.3 21 394 23C412.7 25 431.3 25 450 26.8C468.7 28.7 487.3 32.3 506.2 30.3C525 28.3 544 20.7 562.8 21.2C581.7 21.7 600.3 30.3 619 32.7C637.7 35 656.3 31 675 29.7C693.7 28.3 712.3 29.7 731.2 30.8C750 32 769 33 787.8 34.5C806.7 36 825.3 38 844 35.7C862.7 33.3 881.3 26.7 890.7 23.3L900 20L900 0L890.7 0C881.3 0 862.7 0 844 0C825.3 0 806.7 0 787.8 0C769 0 750 0 731.2 0C712.3 0 693.7 0 675 0C656.3 0 637.7 0 619 0C600.3 0 581.7 0 562.8 0C544 0 525 0 506.2 0C487.3 0 468.7 0 450 0C431.3 0 412.7 0 394 0C375.3 0 356.7 0 337.8 0C319 0 300 0 281.2 0C262.3 0 243.7 0 225 0C206.3 0 187.7 0 169 0C150.3 0 131.7 0 112.8 0C94 0 75 0 56.2 0C37.3 0 18.7 0 9.3 0L0 0Z" fill="#702e87"></path><path d="M0 39L9.3 34.7C18.7 30.3 37.3 21.7 56.2 18.7C75 15.7 94 18.3 112.8 20C131.7 21.7 150.3 22.3 169 21.5C187.7 20.7 206.3 18.3 225 21.2C243.7 24 262.3 32 281.2 31.3C300 30.7 319 21.3 337.8 21.3C356.7 21.3 375.3 30.7 394 30.5C412.7 30.3 431.3 20.7 450 17.8C468.7 15 487.3 19 506.2 19.3C525 19.7 544 16.3 562.8 15.5C581.7 14.7 600.3 16.3 619 19.8C637.7 23.3 656.3 28.7 675 28.2C693.7 27.7 712.3 21.3 731.2 17.7C750 14 769 13 787.8 13C806.7 13 825.3 14 844 17.8C862.7 21.7 881.3 28.3 890.7 31.7L900 35L900 0L890.7 0C881.3 0 862.7 0 844 0C825.3 0 806.7 0 787.8 0C769 0 750 0 731.2 0C712.3 0 693.7 0 675 0C656.3 0 637.7 0 619 0C600.3 0 581.7 0 562.8 0C544 0 525 0 506.2 0C487.3 0 468.7 0 450 0C431.3 0 412.7 0 394 0C375.3 0 356.7 0 337.8 0C319 0 300 0 281.2 0C262.3 0 243.7 0 225 0C206.3 0 187.7 0 169 0C150.3 0 131.7 0 112.8 0C94 0 75 0 56.2 0C37.3 0 18.7 0 9.3 0L0 0Z" fill="#612875"></path><path d="M0 15L9.3 15.2C18.7 15.3 37.3 15.7 56.2 15.3C75 15 94 14 112.8 17.2C131.7 20.3 150.3 27.7 169 31.5C187.7 35.3 206.3 35.7 225 34.2C243.7 32.7 262.3 29.3 281.2 25C300 20.7 319 15.3 337.8 13.3C356.7 11.3 375.3 12.7 394 14.5C412.7 16.3 431.3 18.7 450 20.2C468.7 21.7 487.3 22.3 506.2 21.3C525 20.3 544 17.7 562.8 17.2C581.7 16.7 600.3 18.3 619 17.3C637.7 16.3 656.3 12.7 675 13.8C693.7 15 712.3 21 731.2 21.5C750 22 769 17 787.8 17C806.7 17 825.3 22 844 22.8C862.7 23.7 881.3 20.3 890.7 18.7L900 17L900 0L890.7 0C881.3 0 862.7 0 844 0C825.3 0 806.7 0 787.8 0C769 0 750 0 731.2 0C712.3 0 693.7 0 675 0C656.3 0 637.7 0 619 0C600.3 0 581.7 0 562.8 0C544 0 525 0 506.2 0C487.3 0 468.7 0 450 0C431.3 0 412.7 0 394 0C375.3 0 356.7 0 337.8 0C319 0 300 0 281.2 0C262.3 0 243.7 0 225 0C206.3 0 187.7 0 169 0C150.3 0 131.7 0 112.8 0C94 0 75 0 56.2 0C37.3 0 18.7 0 9.3 0L0 0Z" fill="#522363"></path><path d="M0 17L9.3 17C18.7 17 37.3 17 56.2 17.5C75 18 94 19 112.8 19.7C131.7 20.3 150.3 20.7 169 18.7C187.7 16.7 206.3 12.3 225 11.7C243.7 11 262.3 14 281.2 15.3C300 16.7 319 16.3 337.8 16C356.7 15.7 375.3 15.3 394 14.5C412.7 13.7 431.3 12.3 450 11.8C468.7 11.3 487.3 11.7 506.2 11.7C525 11.7 544 11.3 562.8 10.5C581.7 9.7 600.3 8.3 619 8.8C637.7 9.3 656.3 11.7 675 15.3C693.7 19 712.3 24 731.2 25C750 26 769 23 787.8 22.2C806.7 21.3 825.3 22.7 844 21.5C862.7 20.3 881.3 16.7 890.7 14.8L900 13L900 0L890.7 0C881.3 0 862.7 0 844 0C825.3 0 806.7 0 787.8 0C769 0 750 0 731.2 0C712.3 0 693.7 0 675 0C656.3 0 637.7 0 619 0C600.3 0 581.7 0 562.8 0C544 0 525 0 506.2 0C487.3 0 468.7 0 450 0C431.3 0 412.7 0 394 0C375.3 0 356.7 0 337.8 0C319 0 300 0 281.2 0C262.3 0 243.7 0 225 0C206.3 0 187.7 0 169 0C150.3 0 131.7 0 112.8 0C94 0 75 0 56.2 0C37.3 0 18.7 0 9.3 0L0 0Z" fill="#441e52"></path><path d="M0 21L9.3 20.5C18.7 20 37.3 19 56.2 18C75 17 94 16 112.8 15C131.7 14 150.3 13 169 13.5C187.7 14 206.3 16 225 15C243.7 14 262.3 10 281.2 9.3C300 8.7 319 11.3 337.8 13.5C356.7 15.7 375.3 17.3 394 18.7C412.7 20 431.3 21 450 20C468.7 19 487.3 16 506.2 16.3C525 16.7 544 20.3 562.8 21.5C581.7 22.7 600.3 21.3 619 19C637.7 16.7 656.3 13.3 675 13.2C693.7 13 712.3 16 731.2 17.2C750 18.3 769 17.7 787.8 16.2C806.7 14.7 825.3 12.3 844 12.5C862.7 12.7 881.3 15.3 890.7 16.7L900 18L900 0L890.7 0C881.3 0 862.7 0 844 0C825.3 0 806.7 0 787.8 0C769 0 750 0 731.2 0C712.3 0 693.7 0 675 0C656.3 0 637.7 0 619 0C600.3 0 581.7 0 562.8 0C544 0 525 0 506.2 0C487.3 0 468.7 0 450 0C431.3 0 412.7 0 394 0C375.3 0 356.7 0 337.8 0C319 0 300 0 281.2 0C262.3 0 243.7 0 225 0C206.3 0 187.7 0 169 0C150.3 0 131.7 0 112.8 0C94 0 75 0 56.2 0C37.3 0 18.7 0 9.3 0L0 0Z" fill="#361941"></path><path d="M0 11L9.3 10.8C18.7 10.7 37.3 10.3 56.2 9.2C75 8 94 6 112.8 6.8C131.7 7.7 150.3 11.3 169 13C187.7 14.7 206.3 14.3 225 13.3C243.7 12.3 262.3 10.7 281.2 11.2C300 11.7 319 14.3 337.8 15.5C356.7 16.7 375.3 16.3 394 14.3C412.7 12.3 431.3 8.7 450 6.8C468.7 5 487.3 5 506.2 5.8C525 6.7 544 8.3 562.8 10.2C581.7 12 600.3 14 619 13.7C637.7 13.3 656.3 10.7 675 9C693.7 7.3 712.3 6.7 731.2 6.8C750 7 769 8 787.8 8.3C806.7 8.7 825.3 8.3 844 8.7C862.7 9 881.3 10 890.7 10.5L900 11L900 0L890.7 0C881.3 0 862.7 0 844 0C825.3 0 806.7 0 787.8 0C769 0 750 0 731.2 0C712.3 0 693.7 0 675 0C656.3 0 637.7 0 619 0C600.3 0 581.7 0 562.8 0C544 0 525 0 506.2 0C487.3 0 468.7 0 450 0C431.3 0 412.7 0 394 0C375.3 0 356.7 0 337.8 0C319 0 300 0 281.2 0C262.3 0 243.7 0 225 0C206.3 0 187.7 0 169 0C150.3 0 131.7 0 112.8 0C94 0 75 0 56.2 0C37.3 0 18.7 0 9.3 0L0 0Z" fill="#291331"></path><path d="M0 9L9.3 8.5C18.7 8 37.3 7 56.2 6.8C75 6.7 94 7.3 112.8 6.8C131.7 6.3 150.3 4.7 169 5C187.7 5.3 206.3 7.7 225 8.8C243.7 10 262.3 10 281.2 8.8C300 7.7 319 5.3 337.8 5.5C356.7 5.7 375.3 8.3 394 8.5C412.7 8.7 431.3 6.3 450 5.2C468.7 4 487.3 4 506.2 4C525 4 544 4 562.8 5.2C581.7 6.3 600.3 8.7 619 8.3C637.7 8 656.3 5 675 5C693.7 5 712.3 8 731.2 8.5C750 9 769 7 787.8 6.3C806.7 5.7 825.3 6.3 844 7.2C862.7 8 881.3 9 890.7 9.5L900 10L900 0L890.7 0C881.3 0 862.7 0 844 0C825.3 0 806.7 0 787.8 0C769 0 750 0 731.2 0C712.3 0 693.7 0 675 0C656.3 0 637.7 0 619 0C600.3 0 581.7 0 562.8 0C544 0 525 0 506.2 0C487.3 0 468.7 0 450 0C431.3 0 412.7 0 394 0C375.3 0 356.7 0 337.8 0C319 0 300 0 281.2 0C262.3 0 243.7 0 225 0C206.3 0 187.7 0 169 0C150.3 0 131.7 0 112.8 0C94 0 75 0 56.2 0C37.3 0 18.7 0 9.3 0L0 0Z" fill="#1d0d22"></path></svg>