<svg id="visual" viewBox="0 0 960 150" width="960" height="150" xmlns="http://www.w3.org/2000/svg" xmlns:xlink="http://www.w3.org/1999/xlink" version="1.1"><rect x="0" y="0" width="960" height="150" fill="#000000"></rect><path d="M0 87L7.3 80.3C14.7 73.7 29.3 60.3 43.8 53C58.3 45.7 72.7 44.3 87.2 41C101.7 37.7 116.3 32.3 131 31.7C145.7 31 160.3 35 174.8 35.2C189.3 35.3 203.7 31.7 218.2 40.2C232.7 48.7 247.3 69.3 261.8 72C276.3 74.7 290.7 59.3 305.2 49.5C319.7 39.7 334.3 35.3 349 36.3C363.7 37.3 378.3 43.7 392.8 57.2C407.3 70.7 421.7 91.3 436.2 99.3C450.7 107.3 465.3 102.7 480 90.8C494.7 79 509.3 60 523.8 53.3C538.3 46.7 552.7 52.3 567.2 61C581.7 69.7 596.3 81.3 611 79.5C625.7 77.7 640.3 62.3 654.8 59.2C669.3 56 683.7 65 698.2 61.2C712.7 57.3 727.3 40.7 741.8 32.7C756.3 24.7 770.7 25.3 785.2 38.5C799.7 51.7 814.3 77.3 829 88.8C843.7 100.3 858.3 97.7 872.8 98.8C887.3 100 901.7 105 916.2 105.8C930.7 106.7 945.3 103.3 952.7 101.7L960 100L960 0L952.7 0C945.3 0 930.7 0 916.2 0C901.7 0 887.3 0 872.8 0C858.3 0 843.7 0 829 0C814.3 0 799.7 0 785.2 0C770.7 0 756.3 0 741.8 0C727.3 0 712.7 0 698.2 0C683.7 0 669.3 0 654.8 0C640.3 0 625.7 0 611 0C596.3 0 581.7 0 567.2 0C552.7 0 538.3 0 523.8 0C509.3 0 494.7 0 480 0C465.3 0 450.7 0 436.2 0C421.7 0 407.3 0 392.8 0C378.3 0 363.7 0 349 0C334.3 0 319.7 0 305.2 0C290.7 0 276.3 0 261.8 0C247.3 0 232.7 0 218.2 0C203.7 0 189.3 0 174.8 0C160.3 0 145.7 0 131 0C116.3 0 101.7 0 87.2 0C72.7 0 58.3 0 43.8 0C29.3 0 14.7 0 7.3 0L0 0Z" fill="#1d0d22" stroke-linecap="round" stroke-linejoin="miter"></path></svg>